<svg width="249" height="54" viewBox="0 0 249 54" fill="none" xmlns="http://www.w3.org/2000/svg">
<path d="M18.2021 7.28072C23.0475 7.28072 27.2817 8.24105 30.9048 10.1617C34.5279 12.0824 37.3216 14.7888 39.286 18.281C41.294 21.7295 42.298 25.7236 42.298 30.2634C42.298 34.7595 41.294 38.7537 39.286 42.2458C37.3216 45.738 34.5061 48.4444 30.8393 50.3651C27.2162 52.2858 23.0038 53.2461 18.2021 53.2461H0.981495V7.28072H18.2021ZM17.4819 43.5554C21.7161 43.5554 25.0118 42.3986 27.369 40.0851C29.7262 37.7715 30.9048 34.4976 30.9048 30.2634C30.9048 26.0292 29.7262 22.7335 27.369 20.3763C25.0118 18.0191 21.7161 16.8405 17.4819 16.8405H12.1782V43.5554H17.4819ZM54.1863 12.9118C52.2219 12.9118 50.6068 12.3443 49.3409 11.2094C48.1187 10.0308 47.5075 8.59027 47.5075 6.88785C47.5075 5.14178 48.1187 3.70126 49.3409 2.56632C50.6068 1.38772 52.2219 0.798416 54.1863 0.798416C56.1069 0.798416 57.6784 1.38772 58.9007 2.56632C60.1666 3.70126 60.7995 5.14178 60.7995 6.88785C60.7995 8.59027 60.1666 10.0308 58.9007 11.2094C57.6784 12.3443 56.1069 12.9118 54.1863 12.9118ZM59.7519 16.7095V53.2461H48.5552V16.7095H59.7519Z" fill="#1F1F1F"/>
<path d="M84.3009 42.7697L92.2237 16.7095H104.141L91.1761 53.2461H77.3603L64.3957 16.7095H76.3781L84.3009 42.7697ZM143.295 34.3885C143.295 35.4361 143.229 36.5274 143.098 37.6624H117.758C117.933 39.9323 118.653 41.6784 119.919 42.9006C121.229 44.0792 122.822 44.6685 124.699 44.6685C127.493 44.6685 129.435 43.4899 130.527 41.1327H142.444C141.832 43.5336 140.719 45.6943 139.104 47.615C137.533 49.5357 135.547 51.0417 133.146 52.133C130.745 53.2243 128.06 53.7699 125.092 53.7699C121.513 53.7699 118.326 53.006 115.532 51.4782C112.739 49.9504 110.556 47.7678 108.984 44.9304C107.413 42.0931 106.627 38.7755 106.627 34.9778C106.627 31.1801 107.391 27.8626 108.919 25.0252C110.49 22.1878 112.673 20.0052 115.467 18.4774C118.26 16.9496 121.469 16.1857 125.092 16.1857C128.628 16.1857 131.771 16.9278 134.521 18.4119C137.271 19.8961 139.41 22.0132 140.938 24.7633C142.509 27.5133 143.295 30.7217 143.295 34.3885ZM131.836 31.442C131.836 29.5213 131.181 27.9935 129.872 26.8586C128.562 25.7236 126.925 25.1561 124.961 25.1561C123.084 25.1561 121.491 25.7018 120.181 26.7931C118.915 27.8844 118.13 29.434 117.824 31.442H131.836ZM160.398 22.7989C161.708 20.791 163.345 19.2195 165.309 18.0845C167.273 16.9059 169.456 16.3166 171.857 16.3166V28.1681H168.779C165.986 28.1681 163.89 28.7792 162.494 30.0015C161.097 31.1801 160.398 33.2754 160.398 36.2874V53.2461H149.202V16.7095H160.398V22.7989ZM192.072 53.7699C188.886 53.7699 186.048 53.2243 183.56 52.133C181.072 51.0417 179.108 49.5575 177.667 47.6805C176.227 45.7598 175.419 43.6209 175.244 41.2637H186.31C186.441 42.5296 187.03 43.5554 188.078 44.3411C189.126 45.1269 190.413 45.5197 191.941 45.5197C193.338 45.5197 194.408 45.2578 195.15 44.734C195.935 44.1665 196.328 43.4463 196.328 42.5732C196.328 41.5256 195.783 40.7617 194.691 40.2815C193.6 39.7577 191.832 39.1902 189.388 38.5791C186.768 37.968 184.586 37.335 182.84 36.6802C181.094 35.9818 179.588 34.9123 178.322 33.4718C177.056 31.9877 176.423 30.0015 176.423 27.5133C176.423 25.4181 176.99 23.5192 178.125 21.8168C179.304 20.0707 181.006 18.6957 183.233 17.6917C185.503 16.6877 188.187 16.1857 191.286 16.1857C195.87 16.1857 199.471 17.3206 202.09 19.5905C204.753 21.8604 206.281 24.8724 206.674 28.6265H196.328C196.154 27.3606 195.586 26.3566 194.626 25.6145C193.709 24.8724 192.487 24.5014 190.959 24.5014C189.649 24.5014 188.645 24.7633 187.947 25.2871C187.249 25.7673 186.899 26.4439 186.899 27.3169C186.899 28.3645 187.445 29.1503 188.536 29.6741C189.671 30.1979 191.417 30.7217 193.775 31.2456C196.481 31.944 198.685 32.6424 200.388 33.3409C202.09 33.9956 203.574 35.0869 204.84 36.6147C206.15 38.0989 206.826 40.1069 206.87 42.6387C206.87 44.7776 206.259 46.6983 205.037 48.4007C203.858 50.0595 202.134 51.3691 199.864 52.3294C197.638 53.2897 195.04 53.7699 192.072 53.7699ZM248.162 34.3885C248.162 35.4361 248.096 36.5274 247.965 37.6624H222.625C222.8 39.9323 223.52 41.6784 224.786 42.9006C226.096 44.0792 227.689 44.6685 229.566 44.6685C232.36 44.6685 234.302 43.4899 235.393 41.1327H247.31C246.699 43.5336 245.586 45.6943 243.971 47.615C242.399 49.5357 240.413 51.0417 238.012 52.133C235.612 53.2243 232.927 53.7699 229.959 53.7699C226.379 53.7699 223.193 53.006 220.399 51.4782C217.605 49.9504 215.423 47.7678 213.851 44.9304C212.28 42.0931 211.494 38.7755 211.494 34.9778C211.494 31.1801 212.258 27.8626 213.786 25.0252C215.357 22.1878 217.54 20.0052 220.333 18.4774C223.127 16.9496 226.336 16.1857 229.959 16.1857C233.494 16.1857 236.637 16.9278 239.387 18.4119C242.138 19.8961 244.277 22.0132 245.804 24.7633C247.376 27.5133 248.162 30.7217 248.162 34.3885ZM236.703 31.442C236.703 29.5213 236.048 27.9935 234.739 26.8586C233.429 25.7236 231.792 25.1561 229.828 25.1561C227.951 25.1561 226.357 25.7018 225.048 26.7931C223.782 27.8844 222.996 29.434 222.691 31.442H236.703Z" fill="#F0394F"/>
</svg>
